<svg width="1390" height="1390" viewBox="0 0 1390 1390" fill="none" xmlns="http://www.w3.org/2000/svg">
<g clip-path="url(#clip0_583_18693)">
<path d="M694.5 -1C1078.61 -1 1390 310.386 1390 694.5C1390 1078.61 1078.61 1390 694.5 1390C653.662 1390 613.647 1386.48 574.74 1379.73C573.681 1309.99 572.486 1219.53 572.402 1161.77L572.489 850.179L572.356 737.289C572.337 702.465 571.581 670.086 576.38 635.462C596.507 500.192 685.701 384.553 812.618 329.183C835.612 319.108 876.839 305.425 901.869 302.428C833.695 270.065 748.366 244.488 671.71 252.607C554.545 259.213 444.951 311.778 367.427 398.554C318.585 452.892 284.522 518.537 268.42 589.355C254.183 651.165 257.674 719.287 257.674 783.014L257.898 1000.41L257.652 1184.64C257.635 1199.62 259.639 1218.76 262.881 1239.9C102.122 1112.51 -1 915.546 -1 694.5C-1 310.386 310.386 -1 694.5 -1ZM1004.92 545.539C992.388 543.284 975.32 542.126 962.565 543.508C917.163 548.662 878.169 567.68 849.375 603.051C832.558 623.89 821.171 648.433 816.192 674.557C810 707.899 812.527 802.173 812.586 839.391L812.595 1120.81C858.967 1105 894.454 1091.11 935.737 1063.69C1036.5 998.097 1106.56 895.903 1130.5 779.606C1142.16 721.758 1146.89 664.905 1111.36 613.627C1086.58 577.89 1048.25 553.371 1004.92 545.539Z" fill="#4F34F1"/>
</g>
<defs>
<clipPath id="clip0_583_18693">
<rect width="1390" height="1390" rx="695" fill="white"/>
</clipPath>
</defs>
</svg>
