<svg width="1390" height="1390" viewBox="0 0 1390 1390" fill="none" xmlns="http://www.w3.org/2000/svg">
<rect width="1390" height="1390" rx="695" fill="url(#paint0_linear_637_3035)"/>
<path d="M698.575 220.01C699.841 220.018 701.106 220.032 702.369 220.05C704.171 220.075 705.971 220.109 707.768 220.154C710.141 220.214 712.51 220.295 714.875 220.39C717.231 220.484 719.583 220.595 721.931 220.724C722.923 220.778 723.915 220.836 724.905 220.896C725.27 220.919 725.635 220.939 725.999 220.962C727.732 221.072 729.462 221.193 731.19 221.321C752.554 222.907 773.525 225.901 794.01 230.217C795.756 230.585 797.498 230.963 799.236 231.35C987.449 273.229 1133.63 426.663 1164.82 618.68C1165.07 620.199 1165.31 621.72 1165.54 623.244C1166.19 627.5 1166.78 631.774 1167.32 636.066C1167.65 638.694 1167.95 641.327 1168.24 643.968C1168.71 648.328 1169.12 652.705 1169.47 657.1C1169.6 658.744 1169.73 660.391 1169.84 662.041C1169.93 663.349 1170.02 664.659 1170.1 665.97C1170.17 667.198 1170.24 668.427 1170.31 669.658C1170.37 670.881 1170.43 672.104 1170.49 673.329C1170.63 676.456 1170.75 679.59 1170.83 682.732C1170.87 684.1 1170.9 685.47 1170.92 686.841C1170.97 689.721 1171 692.607 1171 695.5L1170.99 698.575C1170.98 700.656 1170.95 702.734 1170.91 704.809C1168.42 834.295 1114.18 951.107 1028 1035.42C1011.92 1051.14 994.737 1065.74 976.568 1079.07C974.977 1080.24 973.379 1081.4 971.772 1082.55C969.691 1084.04 967.597 1085.51 965.491 1086.96C965.326 1087.08 965.161 1087.19 964.996 1087.3C953.211 1095.43 941.042 1103.03 928.521 1110.08C928.465 1110.11 928.409 1110.15 928.354 1110.18C926.84 1111.03 925.322 1111.87 923.799 1112.71C923.687 1112.77 923.574 1112.83 923.462 1112.89C910.804 1119.82 897.797 1126.19 884.474 1131.96C882.678 1132.74 880.877 1133.51 879.07 1134.27C875.78 1135.65 872.471 1136.99 869.144 1138.29C869.09 1138.31 869.037 1138.34 868.983 1138.36C857.953 1142.68 846.721 1146.61 835.307 1150.11C833.446 1150.68 831.58 1151.24 829.71 1151.79C813.794 1156.47 797.531 1160.33 780.97 1163.34C778.136 1163.85 775.293 1164.34 772.442 1164.8C770.602 1165.1 768.759 1165.39 766.912 1165.67C766.888 1165.67 766.864 1165.68 766.84 1165.68C753.799 1167.64 740.585 1169.08 727.221 1169.96C727.179 1169.96 727.138 1169.96 727.097 1169.96C724.295 1170.15 721.486 1170.31 718.671 1170.44C717.617 1170.49 716.563 1170.54 715.508 1170.58C713.615 1170.66 711.719 1170.73 709.82 1170.79C705.064 1170.93 700.29 1171 695.5 1171C648.609 1171 603.304 1164.21 560.513 1151.56C559.912 1151.39 559.312 1151.21 558.713 1151.03C554.97 1149.91 551.246 1148.74 547.543 1147.53C546.355 1147.14 545.17 1146.75 543.986 1146.35C540.038 1145.02 536.113 1143.65 532.212 1142.22C531.698 1142.03 531.184 1141.84 530.671 1141.65C526.871 1140.25 523.093 1138.8 519.34 1137.3C518.63 1137.02 517.921 1136.73 517.213 1136.44C514.392 1135.3 511.585 1134.14 508.792 1132.94C507.083 1132.21 505.38 1131.47 503.682 1130.72C500.991 1129.53 498.314 1128.32 495.649 1127.09C495.123 1126.84 494.597 1126.6 494.071 1126.35C490.201 1124.54 486.359 1122.68 482.547 1120.76C482.148 1120.56 481.75 1120.36 481.352 1120.16C477.371 1118.15 473.424 1116.08 469.509 1113.96C468.782 1113.57 468.056 1113.18 467.331 1112.78C464.111 1111.02 460.914 1109.21 457.74 1107.38C456.774 1106.82 455.81 1106.26 454.848 1105.69C451.546 1103.75 448.27 1101.77 445.021 1099.75C444.413 1099.38 443.807 1099 443.201 1098.62C428.527 1089.41 414.392 1079.43 400.853 1068.73C400.137 1068.16 399.423 1067.59 398.711 1067.03C395.453 1064.42 392.231 1061.77 389.044 1059.08C388.747 1058.83 388.451 1058.58 388.155 1058.33C371.154 1043.91 355.178 1028.33 340.354 1011.69C340.06 1011.36 339.766 1011.03 339.473 1010.7C336.4 1007.23 333.378 1003.72 330.406 1000.16C330.348 1000.09 330.291 1000.02 330.233 999.952C312.823 979.087 297.167 956.706 283.492 933.038C283.212 932.553 282.933 932.067 282.654 931.581C278.03 923.512 273.635 915.295 269.479 906.938C269.337 906.652 269.195 906.366 269.054 906.079C265.462 898.82 262.051 891.455 258.825 883.992C258.223 882.6 257.628 881.203 257.039 879.804C250.135 863.398 244.124 846.524 239.068 829.241C238.921 828.738 238.774 828.235 238.629 827.731C226.5 785.752 220 741.385 220 695.5C220 432.889 432.889 220 695.5 220L698.575 220.01ZM868.5 565C780.411 565 709 636.411 709 724.5V1030.73C872.901 1024.25 1006.57 900.181 1028 740.556V724.5C1028 636.411 956.589 565 868.5 565ZM695.5 360C510.208 360 360 510.208 360 695.5C360 836.037 446.411 956.391 569 1006.33V724.5C569 559.091 703.091 425 868.5 425C877.65 425 886.704 425.411 895.646 426.214C839.772 384.618 770.511 360 695.5 360Z" fill="white"/>
<defs>
<linearGradient id="paint0_linear_637_3035" x1="152" y1="216.5" x2="1271" y2="1202.5" gradientUnits="userSpaceOnUse">
<stop stop-color="#ED71AD"/>
<stop offset="1" stop-color="#242ACF"/>
</linearGradient>
</defs>
</svg>
