<svg width="1390" height="1390" viewBox="0 0 1390 1390" fill="none" xmlns="http://www.w3.org/2000/svg">
<rect width="1390" height="1390" rx="695" fill="#4F34F1"/>
<g clip-path="url(#clip0_593_2993)">
<path d="M694.63 177.258C980.366 177.258 1212 408.893 1212 694.63C1212 980.366 980.366 1212 694.63 1212C664.251 1212 634.484 1209.38 605.542 1204.36C604.755 1152.49 603.865 1085.19 603.803 1042.23L603.868 810.437L603.769 726.46C603.754 700.555 603.192 676.469 606.762 650.712C621.734 550.087 688.084 464.065 782.496 422.876C799.601 415.382 830.269 405.203 848.888 402.973C798.175 378.899 734.7 359.873 677.677 365.913C590.519 370.826 508.994 409.929 451.325 474.48C414.992 514.901 389.654 563.734 377.676 616.414C367.084 662.394 369.681 713.068 369.681 760.474L369.848 922.189L369.665 1059.23C369.653 1070.38 371.143 1084.62 373.555 1100.34C253.969 1005.58 177.258 859.063 177.258 694.63C177.258 408.893 408.893 177.258 694.63 177.258ZM925.548 583.82C916.224 582.142 903.528 581.281 894.039 582.309C860.265 586.143 831.258 600.29 809.839 626.602C797.329 642.104 788.858 660.361 785.155 679.795C780.549 704.597 782.428 774.726 782.472 802.412L782.479 1011.76C816.974 999.993 843.373 989.664 874.082 969.265C949.038 920.471 1001.16 844.45 1018.97 757.939C1027.64 714.907 1031.16 672.614 1004.73 634.47C986.291 607.885 957.778 589.646 925.548 583.82Z" fill="white"/>
<circle cx="694.63" cy="694.63" r="422.527" stroke="white" stroke-width="189.691"/>
</g>
<defs>
<clipPath id="clip0_593_2993">
<rect x="178" y="178" width="1034" height="1034" rx="517" fill="white"/>
</clipPath>
</defs>
</svg>
