<svg width="1390" height="1390" viewBox="0 0 1390 1390" fill="none" xmlns="http://www.w3.org/2000/svg">
<path d="M694.5 214C716.125 214 737.416 215.429 758.285 218.197C758.496 218.225 758.706 218.253 758.917 218.281C765.664 219.185 772.366 220.23 779.021 221.411C779.412 221.48 779.802 221.55 780.193 221.62C811.458 227.248 841.673 235.901 870.524 247.265C870.805 247.376 871.086 247.487 871.367 247.598C877.175 249.899 882.927 252.31 888.622 254.828C889.241 255.102 889.86 255.377 890.477 255.653C902.568 261.061 914.394 266.952 925.931 273.305C926.173 273.438 926.415 273.572 926.656 273.706C928.631 274.798 930.597 275.904 932.555 277.022C934.123 277.918 935.685 278.823 937.242 279.736C938.914 280.716 940.58 281.707 942.239 282.707C943.085 283.218 943.93 283.731 944.774 284.246C946.471 285.284 948.161 286.332 949.844 287.39C950.744 287.955 951.641 288.524 952.536 289.095C954.144 290.12 955.746 291.155 957.341 292.199C958.881 293.208 960.416 294.225 961.944 295.251C966.655 298.413 971.307 301.656 975.898 304.978C977.51 306.145 979.114 307.321 980.71 308.507C981.59 309.16 982.468 309.817 983.343 310.476C984.821 311.59 986.292 312.711 987.757 313.841C988.622 314.508 989.485 315.179 990.345 315.852C991.711 316.92 993.071 317.996 994.425 319.08C995.944 320.294 997.455 321.518 998.958 322.751C1001.07 324.487 1003.18 326.24 1005.26 328.011C1005.48 328.193 1005.69 328.376 1005.91 328.558C1007.94 330.287 1009.95 332.032 1011.95 333.793C1012.71 334.461 1013.46 335.132 1014.22 335.804C1015.74 337.159 1017.25 338.523 1018.75 339.897C1019.41 340.505 1020.08 341.114 1020.74 341.726C1022.24 343.116 1023.73 344.516 1025.22 345.926C1026.55 347.187 1027.87 348.456 1029.18 349.731C1031.14 351.634 1033.09 353.553 1035.01 355.489C1035.74 356.215 1036.46 356.943 1037.17 357.673C1039.09 359.622 1040.99 361.587 1042.87 363.568C1042.99 363.691 1043.11 363.814 1043.22 363.936C1047.19 368.126 1051.09 372.388 1054.91 376.719C1055.53 377.415 1056.14 378.112 1056.75 378.812C1058.12 380.384 1059.48 381.965 1060.83 383.555C1060.88 383.609 1060.93 383.663 1060.97 383.717C1061.41 384.229 1061.84 384.742 1062.27 385.256C1062.38 385.381 1062.48 385.506 1062.59 385.632C1064.41 387.796 1066.21 389.977 1067.99 392.174C1068.08 392.285 1068.17 392.397 1068.26 392.508C1081.37 408.722 1093.46 425.806 1104.41 443.661C1104.44 443.716 1104.47 443.77 1104.51 443.824C1120.6 470.093 1134.24 498.027 1145.11 527.309C1164.44 579.378 1175 635.705 1175 694.5C1175 959.873 959.873 1175 694.5 1175C685.662 1175 676.88 1174.76 668.16 1174.29C580.241 1169.54 498.606 1141.15 429.497 1095.38C429.377 1095.3 429.256 1095.22 429.136 1095.14C426.121 1093.14 423.13 1091.1 420.163 1089.04C419.322 1088.45 418.484 1087.86 417.647 1087.27C416.192 1086.24 414.742 1085.21 413.299 1084.16C413.223 1084.11 413.147 1084.05 413.072 1084C400.39 1074.82 388.176 1065.04 376.468 1054.69C375.676 1053.99 374.886 1053.29 374.098 1052.59C372.784 1051.41 371.478 1050.23 370.177 1049.04C361.778 1041.35 353.652 1033.37 345.817 1025.11C336.99 1015.8 328.532 1006.14 320.465 996.15C309.183 982.179 298.669 967.562 288.985 952.364C288.628 951.803 288.269 951.242 287.914 950.679C287.853 950.583 287.793 950.485 287.732 950.389C284.436 945.16 281.238 939.863 278.14 934.5C278.019 934.291 277.897 934.083 277.777 933.874C276.999 932.524 276.23 931.168 275.466 929.81C265.033 911.272 255.795 891.972 247.857 872.014C246.733 869.19 245.637 866.353 244.566 863.504C235.298 838.842 227.999 813.217 222.862 786.819C222.336 784.114 221.832 781.402 221.351 778.681C217.144 754.875 214.691 730.465 214.128 705.588C214.09 703.918 214.058 702.245 214.037 700.57C214.012 698.55 214 696.526 214 694.5C214 429.127 429.127 214 694.5 214ZM694.5 381.677C521.733 381.677 381.677 521.733 381.677 694.5C381.677 834.304 473.387 952.688 599.929 992.773C599.838 990.026 599.783 987.269 599.765 984.504L599.76 982.545V708.945C599.76 565.553 699.393 445.433 833.207 414.034C791.406 393.321 744.313 381.677 694.5 381.677ZM902.674 605.146C845.348 605.146 798.876 651.619 798.876 708.945V982.545C798.876 984.85 798.952 987.138 799.1 989.406C913.465 948.84 997.233 843.636 1006.47 717.723V708.945C1006.47 651.619 960 605.146 902.674 605.146Z" fill="white"/>
</svg>
