<svg width="1390" height="1390" viewBox="0 0 1390 1390" fill="none" xmlns="http://www.w3.org/2000/svg">
<path d="M694.5 224C715.675 224 736.523 225.399 756.957 228.11C757.164 228.137 757.37 228.164 757.577 228.192C764.183 229.077 770.745 230.1 777.262 231.256C777.644 231.324 778.027 231.392 778.409 231.461C809.024 236.973 838.61 245.445 866.86 256.573C867.136 256.681 867.411 256.79 867.686 256.899C873.373 259.152 879.006 261.513 884.582 263.979C885.188 264.247 885.794 264.516 886.399 264.786C898.237 270.081 909.818 275.85 921.115 282.071C921.352 282.201 921.588 282.332 921.825 282.463C923.759 283.532 925.684 284.615 927.601 285.711C929.136 286.588 930.666 287.474 932.19 288.368C933.827 289.328 935.458 290.298 937.083 291.277C937.912 291.777 938.739 292.28 939.565 292.784C941.227 293.8 942.882 294.826 944.53 295.862C945.411 296.416 946.289 296.973 947.166 297.532C948.741 298.536 950.309 299.549 951.87 300.571C953.379 301.559 954.882 302.555 956.378 303.56C960.991 306.656 965.546 309.832 970.041 313.085C971.62 314.227 973.191 315.379 974.754 316.54C975.616 317.18 976.475 317.823 977.332 318.469C978.779 319.559 980.22 320.657 981.654 321.763C982.501 322.417 983.346 323.073 984.188 323.732C985.525 324.778 986.857 325.832 988.183 326.893C989.67 328.082 991.15 329.281 992.622 330.488C994.695 332.188 996.753 333.904 998.796 335.638C999.006 335.817 999.215 335.995 999.425 336.174C1001.41 337.867 1003.38 339.575 1005.34 341.3C1006.09 341.954 1006.83 342.611 1007.57 343.27C1009.05 344.596 1010.53 345.932 1012 347.277C1012.65 347.872 1013.3 348.469 1013.95 349.068C1015.42 350.429 1016.88 351.8 1018.34 353.18C1019.64 354.415 1020.93 355.657 1022.22 356.907C1024.14 358.77 1026.04 360.649 1027.93 362.545C1028.63 363.255 1029.34 363.968 1030.04 364.683C1031.92 366.591 1033.78 368.515 1035.62 370.455C1035.74 370.575 1035.85 370.696 1035.96 370.816C1039.85 374.919 1043.67 379.092 1047.41 383.333C1048.02 384.014 1048.61 384.697 1049.21 385.382C1050.55 386.921 1051.89 388.469 1053.21 390.026C1053.25 390.079 1053.3 390.132 1053.34 390.184C1053.77 390.686 1054.19 391.188 1054.62 391.692C1054.72 391.814 1054.82 391.937 1054.93 392.06C1056.71 394.179 1058.47 396.314 1060.21 398.466C1060.3 398.575 1060.39 398.684 1060.48 398.793C1073.32 414.669 1085.15 431.398 1095.88 448.882C1095.91 448.935 1095.94 448.988 1095.97 449.041C1111.73 474.763 1125.09 502.116 1135.73 530.789C1154.66 581.774 1165 636.929 1165 694.5C1165 954.35 954.35 1165 694.5 1165C685.846 1165 677.247 1164.76 668.708 1164.3C582.619 1159.65 502.683 1131.86 435.012 1087.03C434.894 1086.96 434.776 1086.88 434.659 1086.8C431.706 1084.84 428.777 1082.85 425.872 1080.82C425.049 1080.25 424.228 1079.67 423.409 1079.1C421.984 1078.09 420.564 1077.08 419.151 1076.05C419.077 1076 419.003 1075.95 418.929 1075.89C406.511 1066.91 394.551 1057.33 383.087 1047.2C382.311 1046.51 381.537 1045.82 380.766 1045.13C379.48 1043.98 378.2 1042.82 376.927 1041.66C368.702 1034.13 360.746 1026.31 353.074 1018.22C344.431 1009.11 336.148 999.654 328.25 989.872C317.202 976.192 306.907 961.879 297.425 946.998C297.074 946.448 296.724 945.899 296.376 945.348C296.316 945.253 296.257 945.158 296.198 945.063C292.97 939.943 289.838 934.756 286.805 929.505C286.687 929.301 286.567 929.097 286.449 928.892C285.688 927.57 284.935 926.243 284.186 924.912C273.971 906.76 264.926 887.862 257.152 868.32C256.052 865.555 254.978 862.777 253.93 859.987C244.855 835.838 237.708 810.746 232.678 784.898C232.162 782.249 231.669 779.593 231.198 776.929C227.079 753.619 224.677 729.717 224.125 705.358C224.088 703.722 224.057 702.084 224.037 700.443C224.012 698.465 224 696.484 224 694.5C224 434.65 434.65 224 694.5 224ZM694.5 388.187C525.328 388.187 388.187 525.328 388.187 694.5C388.187 831.395 477.989 947.315 601.897 986.565C601.808 983.875 601.754 981.176 601.737 978.469L601.731 976.55V708.644C601.731 568.237 699.291 450.617 830.32 419.871C789.389 399.589 743.276 388.187 694.5 388.187ZM898.342 607.006C842.209 607.006 796.704 652.511 796.704 708.644V976.55C796.704 978.808 796.778 981.048 796.923 983.268C908.908 943.547 990.932 840.532 999.98 717.24V708.644C999.98 652.511 954.475 607.006 898.342 607.006Z" fill="white"/>
</svg>
